<svg width="250" height="250" xmlns="http://www.w3.org/2000/svg" viewBox="0 0 250 250"><rect width="10" height="10" rx="0" fill="#f9f9f3" x="100" y="60"></rect><rect width="10" height="10" rx="0" fill="#f9f9f3" x="110" y="60"></rect><rect width="10" height="10" rx="0" fill="#f9f9f3" x="120" y="60"></rect><rect width="10" height="10" rx="0" fill="#f9f9f3" x="130" y="60"></rect><rect width="10" height="10" rx="0" fill="#f9f9f3" x="140" y="60"></rect><rect width="10" height="10" rx="0" fill="#f9f9f3" x="60" y="70"></rect><rect width="10" height="10" rx="0" fill="#f9f9f3" x="70" y="70"></rect><rect width="10" height="10" rx="0" fill="#f9f9f3" x="80" y="70"></rect><rect width="10" height="10" rx="0" fill="#f9f9f3" x="90" y="70"></rect><rect width="10" height="10" rx="0" fill="#f9f9f3" x="100" y="70"></rect><rect width="10" height="10" rx="0" fill="#f9f9f3" x="110" y="70"></rect><rect width="10" height="10" rx="0" fill="#f9f9f3" x="120" y="70"></rect><rect width="10" height="10" rx="0" fill="#f9f9f3" x="130" y="70"></rect><rect width="10" height="10" rx="0" fill="#f9f9f3" x="140" y="70"></rect><rect width="10" height="10" rx="0" fill="#f9f9f3" x="150" y="70"></rect><rect width="10" height="10" rx="0" fill="#f9f9f3" x="160" y="70"></rect><rect width="10" height="10" rx="0" fill="#f9f9f3" x="170" y="70"></rect><rect width="10" height="10" rx="0" fill="#f9f9f3" x="180" y="70"></rect><rect width="10" height="10" rx="0" fill="#f9f9f3" x="50" y="80"></rect><rect width="10" height="10" rx="0" fill="#f9f9f3" x="60" y="80"></rect><rect width="10" height="10" rx="0" fill="#f9f9f3" x="70" y="80"></rect><rect width="10" height="10" rx="0" fill="#f9f9f3" x="80" y="80"></rect><rect width="10" height="10" rx="0" fill="#f9f9f3" x="90" y="80"></rect><rect width="10" height="10" rx="0" fill="#f9f9f3" x="100" y="80"></rect><rect width="10" height="10" rx="0" fill="#f9f9f3" x="110" y="80"></rect><rect width="10" height="10" rx="0" fill="#f9f9f3" x="120" y="80"></rect><rect width="10" height="10" rx="0" fill="#f9f9f3" x="130" y="80"></rect><rect width="10" height="10" rx="0" fill="#f9f9f3" x="140" y="80"></rect><rect width="10" height="10" rx="0" fill="#f9f9f3" x="150" y="80"></rect><rect width="10" height="10" rx="0" fill="#f9f9f3" x="160" y="80"></rect><rect width="10" height="10" rx="0" fill="#f9f9f3" x="170" y="80"></rect><rect width="10" height="10" rx="0" fill="#f9f9f3" x="180" y="80"></rect><rect width="10" height="10" rx="0" fill="#f9f9f3" x="190" y="80"></rect><rect width="10" height="10" rx="0" fill="#f9f9f3" x="50" y="90"></rect><rect width="10" height="10" rx="0" fill="#f9f9f3" x="60" y="90"></rect><rect width="10" height="10" rx="0" fill="#f9f9f3" x="70" y="90"></rect><rect width="10" height="10" rx="0" fill="#f9f9f3" x="80" y="90"></rect><rect width="10" height="10" rx="0" fill="#f9f9f3" x="90" y="90"></rect><rect width="10" height="10" rx="0" fill="#f9f9f3" x="100" y="90"></rect><rect width="10" height="10" rx="0" fill="#f9f9f3" x="110" y="90"></rect><rect width="10" height="10" rx="0" fill="#f9f9f3" x="120" y="90"></rect><rect width="10" height="10" rx="0" fill="#f9f9f3" x="130" y="90"></rect><rect width="10" height="10" rx="0" fill="#f9f9f3" x="140" y="90"></rect><rect width="10" height="10" rx="0" fill="#f9f9f3" x="150" y="90"></rect><rect width="10" height="10" rx="0" fill="#f9f9f3" x="160" y="90"></rect><rect width="10" height="10" rx="0" fill="#f9f9f3" x="170" y="90"></rect><rect width="10" height="10" rx="0" fill="#f9f9f3" x="180" y="90"></rect><rect width="10" height="10" rx="0" fill="#f9f9f3" x="190" y="90"></rect><rect width="10" height="10" rx="0" fill="#f9f9f3" x="50" y="100"></rect><rect width="10" height="10" rx="0" fill="#f9f9f3" x="60" y="100"></rect><rect width="10" height="10" rx="0" fill="#f9f9f3" x="70" y="100"></rect><rect width="10" height="10" rx="0" fill="#f9f9f3" x="80" y="100"></rect><rect width="10" height="10" rx="0" fill="#f9f9f3" x="90" y="100"></rect><rect width="10" height="10" rx="0" fill="#f9f9f3" x="100" y="100"></rect><rect width="10" height="10" rx="0" fill="#f9f9f3" x="110" y="100"></rect><rect width="10" height="10" rx="0" fill="#f9f9f3" x="120" y="100"></rect><rect width="10" height="10" rx="0" fill="#f9f9f3" x="130" y="100"></rect><rect width="10" height="10" rx="0" fill="#f9f9f3" x="140" y="100"></rect><rect width="10" height="10" rx="0" fill="#f9f9f3" x="150" y="100"></rect><rect width="10" height="10" rx="0" fill="#f9f9f3" x="160" y="100"></rect><rect width="10" height="10" rx="0" fill="#f9f9f3" x="170" y="100"></rect><rect width="10" height="10" rx="0" fill="#f9f9f3" x="180" y="100"></rect><rect width="10" height="10" rx="0" fill="#f9f9f3" x="190" y="100"></rect><rect width="10" height="10" rx="0" fill="#f9f9f3" x="30" y="110"></rect><rect width="10" height="10" rx="0" fill="#f9f9f3" x="40" y="110"></rect><rect width="10" height="10" rx="0" fill="#f9f9f3" x="50" y="110"></rect><rect width="10" height="10" rx="0" fill="#f9f9f3" x="60" y="110"></rect><rect width="10" height="10" rx="0" fill="#f9f9f3" x="70" y="110"></rect><rect width="10" height="10" rx="0" fill="#f9f9f3" x="80" y="110"></rect><rect width="10" height="10" rx="0" fill="#f9f9f3" x="90" y="110"></rect><rect width="10" height="10" rx="0" fill="#f9f9f3" x="100" y="110"></rect><rect width="10" height="10" rx="0" fill="#f9f9f3" x="110" y="110"></rect><rect width="10" height="10" rx="0" fill="#f9f9f3" x="120" y="110"></rect><rect width="10" height="10" rx="0" fill="#f9f9f3" x="130" y="110"></rect><rect width="10" height="10" rx="0" fill="#f9f9f3" x="140" y="110"></rect><rect width="10" height="10" rx="0" fill="#f9f9f3" x="150" y="110"></rect><rect width="10" height="10" rx="0" fill="#f9f9f3" x="160" y="110"></rect><rect width="10" height="10" rx="0" fill="#f9f9f3" x="170" y="110"></rect><rect width="10" height="10" rx="0" fill="#f9f9f3" x="180" y="110"></rect><rect width="10" height="10" rx="0" fill="#f9f9f3" x="190" y="110"></rect><rect width="10" height="10" rx="0" fill="#f9f9f3" x="200" y="110"></rect><rect width="10" height="10" rx="0" fill="#f9f9f3" x="210" y="110"></rect><rect width="10" height="10" rx="0" fill="#f9f9f3" x="20" y="120"></rect><rect width="10" height="10" rx="0" fill="#f9f9f3" x="30" y="120"></rect><rect width="10" height="10" rx="0" fill="#f9f9f3" x="40" y="120"></rect><rect width="10" height="10" rx="0" fill="#f9f9f3" x="50" y="120"></rect><rect width="10" height="10" rx="0" fill="#f9f9f3" x="60" y="120"></rect><rect width="10" height="10" rx="0" fill="#f9f9f3" x="70" y="120"></rect><rect width="10" height="10" rx="0" fill="#f9f9f3" x="80" y="120"></rect><rect width="10" height="10" rx="0" fill="#f9f9f3" x="90" y="120"></rect><rect width="10" height="10" rx="0" fill="#f9f9f3" x="100" y="120"></rect><rect width="10" height="10" rx="0" fill="#f9f9f3" x="110" y="120"></rect><rect width="10" height="10" rx="0" fill="#f9f9f3" x="120" y="120"></rect><rect width="10" height="10" rx="0" fill="#f9f9f3" x="130" y="120"></rect><rect width="10" height="10" rx="0" fill="#f9f9f3" x="140" y="120"></rect><rect width="10" height="10" rx="0" fill="#f9f9f3" x="150" y="120"></rect><rect width="10" height="10" rx="0" fill="#f9f9f3" x="160" y="120"></rect><rect width="10" height="10" rx="0" fill="#f9f9f3" x="170" y="120"></rect><rect width="10" height="10" rx="0" fill="#f9f9f3" x="180" y="120"></rect><rect width="10" height="10" rx="0" fill="#f9f9f3" x="190" y="120"></rect><rect width="10" height="10" rx="0" fill="#f9f9f3" x="200" y="120"></rect><rect width="10" height="10" rx="0" fill="#f9f9f3" x="210" y="120"></rect><rect width="10" height="10" rx="0" fill="#f9f9f3" x="220" y="120"></rect><rect width="10" height="10" rx="0" fill="#f9f9f3" x="20" y="130"></rect><rect width="10" height="10" rx="0" fill="#f9f9f3" x="30" y="130"></rect><rect width="10" height="10" rx="0" fill="#f9f9f3" x="40" y="130"></rect><rect width="10" height="10" rx="0" fill="#f9f9f3" x="50" y="130"></rect><rect width="10" height="10" rx="0" fill="#f9f9f3" x="60" y="130"></rect><rect width="10" height="10" rx="0" fill="#f9f9f3" x="70" y="130"></rect><rect width="10" height="10" rx="0" fill="#f9f9f3" x="80" y="130"></rect><rect width="10" height="10" rx="0" fill="#f9f9f3" x="90" y="130"></rect><rect width="10" height="10" rx="0" fill="#f9f9f3" x="100" y="130"></rect><rect width="10" height="10" rx="0" fill="#f9f9f3" x="110" y="130"></rect><rect width="10" height="10" rx="0" fill="#f9f9f3" x="120" y="130"></rect><rect width="10" height="10" rx="0" fill="#f9f9f3" x="130" y="130"></rect><rect width="10" height="10" rx="0" fill="#f9f9f3" x="140" y="130"></rect><rect width="10" height="10" rx="0" fill="#f9f9f3" x="150" y="130"></rect><rect width="10" height="10" rx="0" fill="#f9f9f3" x="160" y="130"></rect><rect width="10" height="10" rx="0" fill="#f9f9f3" x="170" y="130"></rect><rect width="10" height="10" rx="0" fill="#f9f9f3" x="180" y="130"></rect><rect width="10" height="10" rx="0" fill="#f9f9f3" x="190" y="130"></rect><rect width="10" height="10" rx="0" fill="#f9f9f3" x="200" y="130"></rect><rect width="10" height="10" rx="0" fill="#f9f9f3" x="210" y="130"></rect><rect width="10" height="10" rx="0" fill="#f9f9f3" x="220" y="130"></rect><rect width="10" height="10" rx="0" fill="#f9f9f3" x="20" y="140"></rect><rect width="10" height="10" rx="0" fill="#f9f9f3" x="30" y="140"></rect><rect width="10" height="10" rx="0" fill="#f9f9f3" x="40" y="140"></rect><rect width="10" height="10" rx="0" fill="#f9f9f3" x="50" y="140"></rect><rect width="10" height="10" rx="0" fill="#f9f9f3" x="60" y="140"></rect><rect width="10" height="10" rx="0" fill="#f9f9f3" x="70" y="140"></rect><rect width="10" height="10" rx="0" fill="#f9f9f3" x="80" y="140"></rect><rect width="10" height="10" rx="0" fill="#f9f9f3" x="90" y="140"></rect><rect width="10" height="10" rx="0" fill="#f9f9f3" x="100" y="140"></rect><rect width="10" height="10" rx="0" fill="#f9f9f3" x="110" y="140"></rect><rect width="10" height="10" rx="0" fill="#f9f9f3" x="120" y="140"></rect><rect width="10" height="10" rx="0" fill="#f9f9f3" x="130" y="140"></rect><rect width="10" height="10" rx="0" fill="#f9f9f3" x="140" y="140"></rect><rect width="10" height="10" rx="0" fill="#f9f9f3" x="150" y="140"></rect><rect width="10" height="10" rx="0" fill="#f9f9f3" x="160" y="140"></rect><rect width="10" height="10" rx="0" fill="#f9f9f3" x="170" y="140"></rect><rect width="10" height="10" rx="0" fill="#f9f9f3" x="180" y="140"></rect><rect width="10" height="10" rx="0" fill="#f9f9f3" x="190" y="140"></rect><rect width="10" height="10" rx="0" fill="#f9f9f3" x="200" y="140"></rect><rect width="10" height="10" rx="0" fill="#f9f9f3" x="210" y="140"></rect><rect width="10" height="10" rx="0" fill="#f9f9f3" x="220" y="140"></rect><rect width="10" height="10" rx="0" fill="#f9f9f3" x="20" y="150"></rect><rect width="10" height="10" rx="0" fill="#f9f9f3" x="30" y="150"></rect><rect width="10" height="10" rx="0" fill="#f9f9f3" x="40" y="150"></rect><rect width="10" height="10" rx="0" fill="#f9f9f3" x="50" y="150"></rect><rect width="10" height="10" rx="0" fill="#f9f9f3" x="60" y="150"></rect><rect width="10" height="10" rx="0" fill="#f9f9f3" x="70" y="150"></rect><rect width="10" height="10" rx="0" fill="#f9f9f3" x="80" y="150"></rect><rect width="10" height="10" rx="0" fill="#f9f9f3" x="90" y="150"></rect><rect width="10" height="10" rx="0" fill="#f9f9f3" x="100" y="150"></rect><rect width="10" height="10" rx="0" fill="#f9f9f3" x="110" y="150"></rect><rect width="10" height="10" rx="0" fill="#f9f9f3" x="120" y="150"></rect><rect width="10" height="10" rx="0" fill="#f9f9f3" x="130" y="150"></rect><rect width="10" height="10" rx="0" fill="#f9f9f3" x="140" y="150"></rect><rect width="10" height="10" rx="0" fill="#f9f9f3" x="150" y="150"></rect><rect width="10" height="10" rx="0" fill="#f9f9f3" x="160" y="150"></rect><rect width="10" height="10" rx="0" fill="#f9f9f3" x="170" y="150"></rect><rect width="10" height="10" rx="0" fill="#f9f9f3" x="180" y="150"></rect><rect width="10" height="10" rx="0" fill="#f9f9f3" x="190" y="150"></rect><rect width="10" height="10" rx="0" fill="#f9f9f3" x="200" y="150"></rect><rect width="10" height="10" rx="0" fill="#f9f9f3" x="210" y="150"></rect><rect width="10" height="10" rx="0" fill="#f9f9f3" x="220" y="150"></rect><rect width="10" height="10" rx="0" fill="#f9f9f3" x="30" y="160"></rect><rect width="10" height="10" rx="0" fill="#f9f9f3" x="40" y="160"></rect><rect width="10" height="10" rx="0" fill="#f9f9f3" x="50" y="160"></rect><rect width="10" height="10" rx="0" fill="#f9f9f3" x="60" y="160"></rect><rect width="10" height="10" rx="0" fill="#f9f9f3" x="70" y="160"></rect><rect width="10" height="10" rx="0" fill="#f9f9f3" x="80" y="160"></rect><rect width="10" height="10" rx="0" fill="#f9f9f3" x="90" y="160"></rect><rect width="10" height="10" rx="0" fill="#f9f9f3" x="100" y="160"></rect><rect width="10" height="10" rx="0" fill="#f9f9f3" x="110" y="160"></rect><rect width="10" height="10" rx="0" fill="#f9f9f3" x="120" y="160"></rect><rect width="10" height="10" rx="0" fill="#f9f9f3" x="130" y="160"></rect><rect width="10" height="10" rx="0" fill="#f9f9f3" x="140" y="160"></rect><rect width="10" height="10" rx="0" fill="#f9f9f3" x="150" y="160"></rect><rect width="10" height="10" rx="0" fill="#f9f9f3" x="160" y="160"></rect><rect width="10" height="10" rx="0" fill="#f9f9f3" x="170" y="160"></rect><rect width="10" height="10" rx="0" fill="#f9f9f3" x="180" y="160"></rect><rect width="10" height="10" rx="0" fill="#f9f9f3" x="190" y="160"></rect><rect width="10" height="10" rx="0" fill="#f9f9f3" x="200" y="160"></rect><rect width="10" height="10" rx="0" fill="#f9f9f3" x="210" y="160"></rect><rect width="10" height="10" rx="0" fill="#f9f9f3" x="220" y="160"></rect><rect width="10" height="10" rx="0" fill="#f9f9f3" x="30" y="170"></rect><rect width="10" height="10" rx="0" fill="#f9f9f3" x="40" y="170"></rect><rect width="10" height="10" rx="0" fill="#f9f9f3" x="50" y="170"></rect><rect width="10" height="10" rx="0" fill="#f9f9f3" x="60" y="170"></rect><rect width="10" height="10" rx="0" fill="#f9f9f3" x="70" y="170"></rect><rect width="10" height="10" rx="0" fill="#f9f9f3" x="80" y="170"></rect><rect width="10" height="10" rx="0" fill="#f9f9f3" x="90" y="170"></rect><rect width="10" height="10" rx="0" fill="#f9f9f3" x="100" y="170"></rect><rect width="10" height="10" rx="0" fill="#f9f9f3" x="110" y="170"></rect><rect width="10" height="10" rx="0" fill="#f9f9f3" x="120" y="170"></rect><rect width="10" height="10" rx="0" fill="#f9f9f3" x="130" y="170"></rect><rect width="10" height="10" rx="0" fill="#f9f9f3" x="140" y="170"></rect><rect width="10" height="10" rx="0" fill="#f9f9f3" x="150" y="170"></rect><rect width="10" height="10" rx="0" fill="#f9f9f3" x="160" y="170"></rect><rect width="10" height="10" rx="0" fill="#f9f9f3" x="170" y="170"></rect><rect width="10" height="10" rx="0" fill="#f9f9f3" x="180" y="170"></rect><rect width="10" height="10" rx="0" fill="#f9f9f3" x="190" y="170"></rect><rect width="10" height="10" rx="0" fill="#f9f9f3" x="200" y="170"></rect><rect width="10" height="10" rx="0" fill="#f9f9f3" x="210" y="170"></rect><rect width="10" height="10" rx="0" fill="#f9f9f3" x="40" y="180"></rect><rect width="10" height="10" rx="0" fill="#f9f9f3" x="50" y="180"></rect><rect width="10" height="10" rx="0" fill="#f9f9f3" x="60" y="180"></rect><rect width="10" height="10" rx="0" fill="#f9f9f3" x="70" y="180"></rect><rect width="10" height="10" rx="0" fill="#f9f9f3" x="80" y="180"></rect><rect width="10" height="10" rx="0" fill="#f9f9f3" x="90" y="180"></rect><rect width="10" height="10" rx="0" fill="#f9f9f3" x="110" y="180"></rect><rect width="10" height="10" rx="0" fill="#f9f9f3" x="120" y="180"></rect><rect width="10" height="10" rx="0" fill="#f9f9f3" x="130" y="180"></rect><rect width="10" height="10" rx="0" fill="#f9f9f3" x="140" y="180"></rect><rect width="10" height="10" rx="0" fill="#f9f9f3" x="150" y="180"></rect><rect width="10" height="10" rx="0" fill="#f9f9f3" x="160" y="180"></rect><rect width="10" height="10" rx="0" fill="#f9f9f3" x="180" y="180"></rect><rect width="10" height="10" rx="0" fill="#f9f9f3" x="190" y="180"></rect><rect width="10" height="10" rx="0" fill="#f9f9f3" x="200" y="180"></rect></svg>