<svg width="250" height="250" xmlns="http://www.w3.org/2000/svg" viewBox="0 0 250 250"><rect width="10" height="10" rx="0" fill="#f9f9f3" x="110" y="20"></rect><rect width="10" height="10" rx="0" fill="#f9f9f3" x="120" y="20"></rect><rect width="10" height="10" rx="0" fill="#f9f9f3" x="130" y="20"></rect><rect width="10" height="10" rx="0" fill="#f9f9f3" x="90" y="30"></rect><rect width="10" height="10" rx="0" fill="#f9f9f3" x="100" y="30"></rect><rect width="10" height="10" rx="0" fill="#f9f9f3" x="110" y="30"></rect><rect width="10" height="10" rx="0" fill="#f9f9f3" x="120" y="30"></rect><rect width="10" height="10" rx="0" fill="#f9f9f3" x="130" y="30"></rect><rect width="10" height="10" rx="0" fill="#f9f9f3" x="140" y="30"></rect><rect width="10" height="10" rx="0" fill="#f9f9f3" x="150" y="30"></rect><rect width="10" height="10" rx="0" fill="#f9f9f3" x="70" y="40"></rect><rect width="10" height="10" rx="0" fill="#f9f9f3" x="80" y="40"></rect><rect width="10" height="10" rx="0" fill="#f9f9f3" x="90" y="40"></rect><rect width="10" height="10" rx="0" fill="#f9f9f3" x="100" y="40"></rect><rect width="10" height="10" rx="0" fill="#f9f9f3" x="110" y="40"></rect><rect width="10" height="10" rx="0" fill="#f9f9f3" x="120" y="40"></rect><rect width="10" height="10" rx="0" fill="#f9f9f3" x="130" y="40"></rect><rect width="10" height="10" rx="0" fill="#f9f9f3" x="140" y="40"></rect><rect width="10" height="10" rx="0" fill="#f9f9f3" x="150" y="40"></rect><rect width="10" height="10" rx="0" fill="#f9f9f3" x="160" y="40"></rect><rect width="10" height="10" rx="0" fill="#f9f9f3" x="170" y="40"></rect><rect width="10" height="10" rx="0" fill="#f9f9f3" x="60" y="50"></rect><rect width="10" height="10" rx="0" fill="#f9f9f3" x="70" y="50"></rect><rect width="10" height="10" rx="0" fill="#f9f9f3" x="80" y="50"></rect><rect width="10" height="10" rx="0" fill="#f9f9f3" x="90" y="50"></rect><rect width="10" height="10" rx="0" fill="#f9f9f3" x="100" y="50"></rect><rect width="10" height="10" rx="0" fill="#f9f9f3" x="110" y="50"></rect><rect width="10" height="10" rx="0" fill="#f9f9f3" x="120" y="50"></rect><rect width="10" height="10" rx="0" fill="#f9f9f3" x="130" y="50"></rect><rect width="10" height="10" rx="0" fill="#f9f9f3" x="140" y="50"></rect><rect width="10" height="10" rx="0" fill="#f9f9f3" x="150" y="50"></rect><rect width="10" height="10" rx="0" fill="#f9f9f3" x="160" y="50"></rect><rect width="10" height="10" rx="0" fill="#f9f9f3" x="170" y="50"></rect><rect width="10" height="10" rx="0" fill="#f9f9f3" x="180" y="50"></rect><rect width="10" height="10" rx="0" fill="#f9f9f3" x="50" y="60"></rect><rect width="10" height="10" rx="0" fill="#f9f9f3" x="60" y="60"></rect><rect width="10" height="10" rx="0" fill="#f9f9f3" x="70" y="60"></rect><rect width="10" height="10" rx="0" fill="#f9f9f3" x="80" y="60"></rect><rect width="10" height="10" rx="0" fill="#f9f9f3" x="90" y="60"></rect><rect width="10" height="10" rx="0" fill="#f9f9f3" x="100" y="60"></rect><rect width="10" height="10" rx="0" fill="#f9f9f3" x="110" y="60"></rect><rect width="10" height="10" rx="0" fill="#f9f9f3" x="120" y="60"></rect><rect width="10" height="10" rx="0" fill="#f9f9f3" x="130" y="60"></rect><rect width="10" height="10" rx="0" fill="#f9f9f3" x="140" y="60"></rect><rect width="10" height="10" rx="0" fill="#f9f9f3" x="150" y="60"></rect><rect width="10" height="10" rx="0" fill="#f9f9f3" x="160" y="60"></rect><rect width="10" height="10" rx="0" fill="#f9f9f3" x="170" y="60"></rect><rect width="10" height="10" rx="0" fill="#f9f9f3" x="180" y="60"></rect><rect width="10" height="10" rx="0" fill="#f9f9f3" x="190" y="60"></rect><rect width="10" height="10" rx="0" fill="#f9f9f3" x="40" y="70"></rect><rect width="10" height="10" rx="0" fill="#f9f9f3" x="50" y="70"></rect><rect width="10" height="10" rx="0" fill="#f9f9f3" x="60" y="70"></rect><rect width="10" height="10" rx="0" fill="#f9f9f3" x="70" y="70"></rect><rect width="10" height="10" rx="0" fill="#f9f9f3" x="80" y="70"></rect><rect width="10" height="10" rx="0" fill="#f9f9f3" x="90" y="70"></rect><rect width="10" height="10" rx="0" fill="#f9f9f3" x="100" y="70"></rect><rect width="10" height="10" rx="0" fill="#f9f9f3" x="110" y="70"></rect><rect width="10" height="10" rx="0" fill="#f9f9f3" x="120" y="70"></rect><rect width="10" height="10" rx="0" fill="#f9f9f3" x="130" y="70"></rect><rect width="10" height="10" rx="0" fill="#f9f9f3" x="140" y="70"></rect><rect width="10" height="10" rx="0" fill="#f9f9f3" x="150" y="70"></rect><rect width="10" height="10" rx="0" fill="#f9f9f3" x="160" y="70"></rect><rect width="10" height="10" rx="0" fill="#f9f9f3" x="170" y="70"></rect><rect width="10" height="10" rx="0" fill="#f9f9f3" x="180" y="70"></rect><rect width="10" height="10" rx="0" fill="#f9f9f3" x="190" y="70"></rect><rect width="10" height="10" rx="0" fill="#f9f9f3" x="200" y="70"></rect><rect width="10" height="10" rx="0" fill="#f9f9f3" x="40" y="80"></rect><rect width="10" height="10" rx="0" fill="#f9f9f3" x="50" y="80"></rect><rect width="10" height="10" rx="0" fill="#f9f9f3" x="60" y="80"></rect><rect width="10" height="10" rx="0" fill="#f9f9f3" x="70" y="80"></rect><rect width="10" height="10" rx="0" fill="#f9f9f3" x="80" y="80"></rect><rect width="10" height="10" rx="0" fill="#f9f9f3" x="90" y="80"></rect><rect width="10" height="10" rx="0" fill="#f9f9f3" x="100" y="80"></rect><rect width="10" height="10" rx="0" fill="#f9f9f3" x="110" y="80"></rect><rect width="10" height="10" rx="0" fill="#f9f9f3" x="120" y="80"></rect><rect width="10" height="10" rx="0" fill="#f9f9f3" x="130" y="80"></rect><rect width="10" height="10" rx="0" fill="#f9f9f3" x="140" y="80"></rect><rect width="10" height="10" rx="0" fill="#f9f9f3" x="150" y="80"></rect><rect width="10" height="10" rx="0" fill="#f9f9f3" x="160" y="80"></rect><rect width="10" height="10" rx="0" fill="#f9f9f3" x="170" y="80"></rect><rect width="10" height="10" rx="0" fill="#f9f9f3" x="180" y="80"></rect><rect width="10" height="10" rx="0" fill="#f9f9f3" x="190" y="80"></rect><rect width="10" height="10" rx="0" fill="#f9f9f3" x="200" y="80"></rect><rect width="10" height="10" rx="0" fill="#f9f9f3" x="30" y="90"></rect><rect width="10" height="10" rx="0" fill="#f9f9f3" x="40" y="90"></rect><rect width="10" height="10" rx="0" fill="#f9f9f3" x="50" y="90"></rect><rect width="10" height="10" rx="0" fill="#f9f9f3" x="60" y="90"></rect><rect width="10" height="10" rx="0" fill="#f9f9f3" x="70" y="90"></rect><rect width="10" height="10" rx="0" fill="#f9f9f3" x="80" y="90"></rect><rect width="10" height="10" rx="0" fill="#f9f9f3" x="90" y="90"></rect><rect width="10" height="10" rx="0" fill="#f9f9f3" x="100" y="90"></rect><rect width="10" height="10" rx="0" fill="#f9f9f3" x="110" y="90"></rect><rect width="10" height="10" rx="0" fill="#f9f9f3" x="120" y="90"></rect><rect width="10" height="10" rx="0" fill="#f9f9f3" x="130" y="90"></rect><rect width="10" height="10" rx="0" fill="#f9f9f3" x="140" y="90"></rect><rect width="10" height="10" rx="0" fill="#f9f9f3" x="150" y="90"></rect><rect width="10" height="10" rx="0" fill="#f9f9f3" x="160" y="90"></rect><rect width="10" height="10" rx="0" fill="#f9f9f3" x="170" y="90"></rect><rect width="10" height="10" rx="0" fill="#f9f9f3" x="180" y="90"></rect><rect width="10" height="10" rx="0" fill="#f9f9f3" x="190" y="90"></rect><rect width="10" height="10" rx="0" fill="#f9f9f3" x="200" y="90"></rect><rect width="10" height="10" rx="0" fill="#f9f9f3" x="210" y="90"></rect><rect width="10" height="10" rx="0" fill="#f9f9f3" x="30" y="100"></rect><rect width="10" height="10" rx="0" fill="#f9f9f3" x="40" y="100"></rect><rect width="10" height="10" rx="0" fill="#f9f9f3" x="50" y="100"></rect><rect width="10" height="10" rx="0" fill="#f9f9f3" x="60" y="100"></rect><rect width="10" height="10" rx="0" fill="#f9f9f3" x="70" y="100"></rect><rect width="10" height="10" rx="0" fill="#f9f9f3" x="80" y="100"></rect><rect width="10" height="10" rx="0" fill="#f9f9f3" x="90" y="100"></rect><rect width="10" height="10" rx="0" fill="#f9f9f3" x="100" y="100"></rect><rect width="10" height="10" rx="0" fill="#f9f9f3" x="110" y="100"></rect><rect width="10" height="10" rx="0" fill="#686b67" x="120" y="100"></rect><rect width="10" height="10" rx="0" fill="#686b67" x="130" y="100"></rect><rect width="10" height="10" rx="0" fill="#686b67" x="140" y="100"></rect><rect width="10" height="10" rx="0" fill="#f9f9f3" x="150" y="100"></rect><rect width="10" height="10" rx="0" fill="#f9f9f3" x="160" y="100"></rect><rect width="10" height="10" rx="0" fill="#f9f9f3" x="170" y="100"></rect><rect width="10" height="10" rx="0" fill="#f9f9f3" x="180" y="100"></rect><rect width="10" height="10" rx="0" fill="#f9f9f3" x="190" y="100"></rect><rect width="10" height="10" rx="0" fill="#f9f9f3" x="200" y="100"></rect><rect width="10" height="10" rx="0" fill="#f9f9f3" x="210" y="100"></rect><rect width="10" height="10" rx="0" fill="#f9f9f3" x="20" y="110"></rect><rect width="10" height="10" rx="0" fill="#f9f9f3" x="30" y="110"></rect><rect width="10" height="10" rx="0" fill="#f9f9f3" x="40" y="110"></rect><rect width="10" height="10" rx="0" fill="#f9f9f3" x="50" y="110"></rect><rect width="10" height="10" rx="0" fill="#f9f9f3" x="60" y="110"></rect><rect width="10" height="10" rx="0" fill="#f9f9f3" x="70" y="110"></rect><rect width="10" height="10" rx="0" fill="#f9f9f3" x="80" y="110"></rect><rect width="10" height="10" rx="0" fill="#f9f9f3" x="90" y="110"></rect><rect width="10" height="10" rx="0" fill="#f9f9f3" x="100" y="110"></rect><rect width="10" height="10" rx="0" fill="#686b67" x="110" y="110"></rect><rect width="10" height="10" rx="0" fill="#686b67" x="120" y="110"></rect><rect width="10" height="10" rx="0" fill="#686b67" x="130" y="110"></rect><rect width="10" height="10" rx="0" fill="#686b67" x="140" y="110"></rect><rect width="10" height="10" rx="0" fill="#686b67" x="150" y="110"></rect><rect width="10" height="10" rx="0" fill="#686b67" x="160" y="110"></rect><rect width="10" height="10" rx="0" fill="#f9f9f3" x="170" y="110"></rect><rect width="10" height="10" rx="0" fill="#f9f9f3" x="180" y="110"></rect><rect width="10" height="10" rx="0" fill="#f9f9f3" x="190" y="110"></rect><rect width="10" height="10" rx="0" fill="#f9f9f3" x="200" y="110"></rect><rect width="10" height="10" rx="0" fill="#f9f9f3" x="210" y="110"></rect><rect width="10" height="10" rx="0" fill="#f9f9f3" x="220" y="110"></rect><rect width="10" height="10" rx="0" fill="#f9f9f3" x="20" y="120"></rect><rect width="10" height="10" rx="0" fill="#f9f9f3" x="30" y="120"></rect><rect width="10" height="10" rx="0" fill="#f9f9f3" x="40" y="120"></rect><rect width="10" height="10" rx="0" fill="#f9f9f3" x="50" y="120"></rect><rect width="10" height="10" rx="0" fill="#686b67" x="60" y="120"></rect><rect width="10" height="10" rx="0" fill="#686b67" x="70" y="120"></rect><rect width="10" height="10" rx="0" fill="#686b67" x="80" y="120"></rect><rect width="10" height="10" rx="0" fill="#f9f9f3" x="90" y="120"></rect><rect width="10" height="10" rx="0" fill="#686b67" x="100" y="120"></rect><rect width="10" height="10" rx="0" fill="#686b67" x="110" y="120"></rect><rect width="10" height="10" rx="0" fill="#686b67" x="120" y="120"></rect><rect width="10" height="10" rx="0" fill="#686b67" x="130" y="120"></rect><rect width="10" height="10" rx="0" fill="#686b67" x="140" y="120"></rect><rect width="10" height="10" rx="0" fill="#686b67" x="150" y="120"></rect><rect width="10" height="10" rx="0" fill="#686b67" x="160" y="120"></rect><rect width="10" height="10" rx="0" fill="#686b67" x="170" y="120"></rect><rect width="10" height="10" rx="0" fill="#f9f9f3" x="180" y="120"></rect><rect width="10" height="10" rx="0" fill="#f9f9f3" x="190" y="120"></rect><rect width="10" height="10" rx="0" fill="#f9f9f3" x="200" y="120"></rect><rect width="10" height="10" rx="0" fill="#f9f9f3" x="210" y="120"></rect><rect width="10" height="10" rx="0" fill="#f9f9f3" x="220" y="120"></rect><rect width="10" height="10" rx="0" fill="#f9f9f3" x="20" y="130"></rect><rect width="10" height="10" rx="0" fill="#f9f9f3" x="30" y="130"></rect><rect width="10" height="10" rx="0" fill="#f9f9f3" x="40" y="130"></rect><rect width="10" height="10" rx="0" fill="#686b67" x="50" y="130"></rect><rect width="10" height="10" rx="0" fill="#686b67" x="60" y="130"></rect><rect width="10" height="10" rx="0" fill="#686b67" x="70" y="130"></rect><rect width="10" height="10" rx="0" fill="#686b67" x="80" y="130"></rect><rect width="10" height="10" rx="0" fill="#686b67" x="90" y="130"></rect><rect width="10" height="10" rx="0" fill="#686b67" x="100" y="130"></rect><rect width="10" height="10" rx="0" fill="#686b67" x="110" y="130"></rect><rect width="10" height="10" rx="0" fill="#686b67" x="120" y="130"></rect><rect width="10" height="10" rx="0" fill="#686b67" x="130" y="130"></rect><rect width="10" height="10" rx="0" fill="#686b67" x="140" y="130"></rect><rect width="10" height="10" rx="0" fill="#686b67" x="150" y="130"></rect><rect width="10" height="10" rx="0" fill="#686b67" x="160" y="130"></rect><rect width="10" height="10" rx="0" fill="#686b67" x="170" y="130"></rect><rect width="10" height="10" rx="0" fill="#686b67" x="180" y="130"></rect><rect width="10" height="10" rx="0" fill="#f9f9f3" x="190" y="130"></rect><rect width="10" height="10" rx="0" fill="#f9f9f3" x="200" y="130"></rect><rect width="10" height="10" rx="0" fill="#f9f9f3" x="210" y="130"></rect><rect width="10" height="10" rx="0" fill="#f9f9f3" x="220" y="130"></rect><rect width="10" height="10" rx="0" fill="#686b67" x="20" y="140"></rect><rect width="10" height="10" rx="0" fill="#686b67" x="30" y="140"></rect><rect width="10" height="10" rx="0" fill="#686b67" x="40" y="140"></rect><rect width="10" height="10" rx="0" fill="#686b67" x="50" y="140"></rect><rect width="10" height="10" rx="0" fill="#686b67" x="60" y="140"></rect><rect width="10" height="10" rx="0" fill="#686b67" x="70" y="140"></rect><rect width="10" height="10" rx="0" fill="#686b67" x="80" y="140"></rect><rect width="10" height="10" rx="0" fill="#686b67" x="90" y="140"></rect><rect width="10" height="10" rx="0" fill="#686b67" x="100" y="140"></rect><rect width="10" height="10" rx="0" fill="#686b67" x="110" y="140"></rect><rect width="10" height="10" rx="0" fill="#686b67" x="120" y="140"></rect><rect width="10" height="10" rx="0" fill="#686b67" x="130" y="140"></rect><rect width="10" height="10" rx="0" fill="#686b67" x="140" y="140"></rect><rect width="10" height="10" rx="0" fill="#686b67" x="150" y="140"></rect><rect width="10" height="10" rx="0" fill="#686b67" x="160" y="140"></rect><rect width="10" height="10" rx="0" fill="#686b67" x="170" y="140"></rect><rect width="10" height="10" rx="0" fill="#686b67" x="180" y="140"></rect><rect width="10" height="10" rx="0" fill="#686b67" x="190" y="140"></rect><rect width="10" height="10" rx="0" fill="#686b67" x="200" y="140"></rect><rect width="10" height="10" rx="0" fill="#686b67" x="210" y="140"></rect><rect width="10" height="10" rx="0" fill="#686b67" x="220" y="140"></rect><rect width="10" height="10" rx="0" fill="#686b67" x="10" y="150"></rect><rect width="10" height="10" rx="0" fill="#686b67" x="20" y="150"></rect><rect width="10" height="10" rx="0" fill="#686b67" x="30" y="150"></rect><rect width="10" height="10" rx="0" fill="#686b67" x="40" y="150"></rect><rect width="10" height="10" rx="0" fill="#686b67" x="50" y="150"></rect><rect width="10" height="10" rx="0" fill="#686b67" x="60" y="150"></rect><rect width="10" height="10" rx="0" fill="#686b67" x="70" y="150"></rect><rect width="10" height="10" rx="0" fill="#686b67" x="80" y="150"></rect><rect width="10" height="10" rx="0" fill="#686b67" x="90" y="150"></rect><rect width="10" height="10" rx="0" fill="#686b67" x="100" y="150"></rect><rect width="10" height="10" rx="0" fill="#686b67" x="110" y="150"></rect><rect width="10" height="10" rx="0" fill="#686b67" x="120" y="150"></rect><rect width="10" height="10" rx="0" fill="#686b67" x="130" y="150"></rect><rect width="10" height="10" rx="0" fill="#686b67" x="140" y="150"></rect><rect width="10" height="10" rx="0" fill="#686b67" x="150" y="150"></rect><rect width="10" height="10" rx="0" fill="#686b67" x="160" y="150"></rect><rect width="10" height="10" rx="0" fill="#686b67" x="170" y="150"></rect><rect width="10" height="10" rx="0" fill="#686b67" x="180" y="150"></rect><rect width="10" height="10" rx="0" fill="#686b67" x="190" y="150"></rect><rect width="10" height="10" rx="0" fill="#686b67" x="200" y="150"></rect><rect width="10" height="10" rx="0" fill="#686b67" x="210" y="150"></rect><rect width="10" height="10" rx="0" fill="#686b67" x="220" y="150"></rect><rect width="10" height="10" rx="0" fill="#686b67" x="0" y="160"></rect><rect width="10" height="10" rx="0" fill="#686b67" x="10" y="160"></rect><rect width="10" height="10" rx="0" fill="#686b67" x="20" y="160"></rect><rect width="10" height="10" rx="0" fill="#686b67" x="30" y="160"></rect><rect width="10" height="10" rx="0" fill="#686b67" x="40" y="160"></rect><rect width="10" height="10" rx="0" fill="#686b67" x="50" y="160"></rect><rect width="10" height="10" rx="0" fill="#686b67" x="60" y="160"></rect><rect width="10" height="10" rx="0" fill="#686b67" x="70" y="160"></rect><rect width="10" height="10" rx="0" fill="#686b67" x="80" y="160"></rect><rect width="10" height="10" rx="0" fill="#686b67" x="90" y="160"></rect><rect width="10" height="10" rx="0" fill="#686b67" x="100" y="160"></rect><rect width="10" height="10" rx="0" fill="#686b67" x="110" y="160"></rect><rect width="10" height="10" rx="0" fill="#686b67" x="120" y="160"></rect><rect width="10" height="10" rx="0" fill="#686b67" x="130" y="160"></rect><rect width="10" height="10" rx="0" fill="#686b67" x="140" y="160"></rect><rect width="10" height="10" rx="0" fill="#686b67" x="150" y="160"></rect><rect width="10" height="10" rx="0" fill="#686b67" x="160" y="160"></rect><rect width="10" height="10" rx="0" fill="#686b67" x="170" y="160"></rect><rect width="10" height="10" rx="0" fill="#686b67" x="180" y="160"></rect><rect width="10" height="10" rx="0" fill="#686b67" x="190" y="160"></rect><rect width="10" height="10" rx="0" fill="#686b67" x="200" y="160"></rect><rect width="10" height="10" rx="0" fill="#686b67" x="210" y="160"></rect><rect width="10" height="10" rx="0" fill="#686b67" x="220" y="160"></rect><rect width="10" height="10" rx="0" fill="#686b67" x="230" y="160"></rect><rect width="10" height="10" rx="0" fill="#686b67" x="240" y="160"></rect><rect width="10" height="10" rx="0" fill="#686b67" x="0" y="170"></rect><rect width="10" height="10" rx="0" fill="#686b67" x="10" y="170"></rect><rect width="10" height="10" rx="0" fill="#686b67" x="20" y="170"></rect><rect width="10" height="10" rx="0" fill="#686b67" x="30" y="170"></rect><rect width="10" height="10" rx="0" fill="#686b67" x="40" y="170"></rect><rect width="10" height="10" rx="0" fill="#686b67" x="50" y="170"></rect><rect width="10" height="10" rx="0" fill="#686b67" x="60" y="170"></rect><rect width="10" height="10" rx="0" fill="#686b67" x="70" y="170"></rect><rect width="10" height="10" rx="0" fill="#686b67" x="80" y="170"></rect><rect width="10" height="10" rx="0" fill="#686b67" x="90" y="170"></rect><rect width="10" height="10" rx="0" fill="#686b67" x="100" y="170"></rect><rect width="10" height="10" rx="0" fill="#686b67" x="110" y="170"></rect><rect width="10" height="10" rx="0" fill="#686b67" x="120" y="170"></rect><rect width="10" height="10" rx="0" fill="#686b67" x="130" y="170"></rect><rect width="10" height="10" rx="0" fill="#686b67" x="140" y="170"></rect><rect width="10" height="10" rx="0" fill="#686b67" x="150" y="170"></rect><rect width="10" height="10" rx="0" fill="#686b67" x="160" y="170"></rect><rect width="10" height="10" rx="0" fill="#686b67" x="170" y="170"></rect><rect width="10" height="10" rx="0" fill="#686b67" x="180" y="170"></rect><rect width="10" height="10" rx="0" fill="#686b67" x="190" y="170"></rect><rect width="10" height="10" rx="0" fill="#686b67" x="200" y="170"></rect><rect width="10" height="10" rx="0" fill="#686b67" x="210" y="170"></rect><rect width="10" height="10" rx="0" fill="#686b67" x="220" y="170"></rect><rect width="10" height="10" rx="0" fill="#686b67" x="230" y="170"></rect><rect width="10" height="10" rx="0" fill="#686b67" x="240" y="170"></rect><rect width="10" height="10" rx="0" fill="#686b67" x="0" y="180"></rect><rect width="10" height="10" rx="0" fill="#686b67" x="10" y="180"></rect><rect width="10" height="10" rx="0" fill="#686b67" x="20" y="180"></rect><rect width="10" height="10" rx="0" fill="#686b67" x="30" y="180"></rect><rect width="10" height="10" rx="0" fill="#686b67" x="40" y="180"></rect><rect width="10" height="10" rx="0" fill="#686b67" x="50" y="180"></rect><rect width="10" height="10" rx="0" fill="#686b67" x="60" y="180"></rect><rect width="10" height="10" rx="0" fill="#686b67" x="70" y="180"></rect><rect width="10" height="10" rx="0" fill="#686b67" x="80" y="180"></rect><rect width="10" height="10" rx="0" fill="#686b67" x="90" y="180"></rect><rect width="10" height="10" rx="0" fill="#686b67" x="100" y="180"></rect><rect width="10" height="10" rx="0" fill="#686b67" x="110" y="180"></rect><rect width="10" height="10" rx="0" fill="#686b67" x="120" y="180"></rect><rect width="10" height="10" rx="0" fill="#686b67" x="130" y="180"></rect><rect width="10" height="10" rx="0" fill="#686b67" x="140" y="180"></rect><rect width="10" height="10" rx="0" fill="#686b67" x="150" y="180"></rect><rect width="10" height="10" rx="0" fill="#686b67" x="160" y="180"></rect><rect width="10" height="10" rx="0" fill="#686b67" x="170" y="180"></rect><rect width="10" height="10" rx="0" fill="#686b67" x="180" y="180"></rect><rect width="10" height="10" rx="0" fill="#686b67" x="190" y="180"></rect><rect width="10" height="10" rx="0" fill="#686b67" x="200" y="180"></rect><rect width="10" height="10" rx="0" fill="#686b67" x="210" y="180"></rect><rect width="10" height="10" rx="0" fill="#686b67" x="220" y="180"></rect><rect width="10" height="10" rx="0" fill="#686b67" x="230" y="180"></rect><rect width="10" height="10" rx="0" fill="#686b67" x="240" y="180"></rect><rect width="10" height="10" rx="0" fill="#686b67" x="0" y="190"></rect><rect width="10" height="10" rx="0" fill="#686b67" x="10" y="190"></rect><rect width="10" height="10" rx="0" fill="#686b67" x="20" y="190"></rect><rect width="10" height="10" rx="0" fill="#686b67" x="30" y="190"></rect><rect width="10" height="10" rx="0" fill="#686b67" x="40" y="190"></rect><rect width="10" height="10" rx="0" fill="#686b67" x="50" y="190"></rect><rect width="10" height="10" rx="0" fill="#686b67" x="60" y="190"></rect><rect width="10" height="10" rx="0" fill="#686b67" x="70" y="190"></rect><rect width="10" height="10" rx="0" fill="#686b67" x="80" y="190"></rect><rect width="10" height="10" rx="0" fill="#686b67" x="90" y="190"></rect><rect width="10" height="10" rx="0" fill="#686b67" x="100" y="190"></rect><rect width="10" height="10" rx="0" fill="#686b67" x="110" y="190"></rect><rect width="10" height="10" rx="0" fill="#686b67" x="120" y="190"></rect><rect width="10" height="10" rx="0" fill="#686b67" x="130" y="190"></rect><rect width="10" height="10" rx="0" fill="#686b67" x="140" y="190"></rect><rect width="10" height="10" rx="0" fill="#686b67" x="150" y="190"></rect><rect width="10" height="10" rx="0" fill="#686b67" x="160" y="190"></rect><rect width="10" height="10" rx="0" fill="#686b67" x="170" y="190"></rect><rect width="10" height="10" rx="0" fill="#686b67" x="180" y="190"></rect><rect width="10" height="10" rx="0" fill="#686b67" x="190" y="190"></rect><rect width="10" height="10" rx="0" fill="#686b67" x="200" y="190"></rect><rect width="10" height="10" rx="0" fill="#686b67" x="210" y="190"></rect><rect width="10" height="10" rx="0" fill="#686b67" x="220" y="190"></rect><rect width="10" height="10" rx="0" fill="#686b67" x="230" y="190"></rect><rect width="10" height="10" rx="0" fill="#686b67" x="240" y="190"></rect><rect width="10" height="10" rx="0" fill="#686b67" x="0" y="200"></rect><rect width="10" height="10" rx="0" fill="#686b67" x="10" y="200"></rect><rect width="10" height="10" rx="0" fill="#686b67" x="20" y="200"></rect><rect width="10" height="10" rx="0" fill="#686b67" x="30" y="200"></rect><rect width="10" height="10" rx="0" fill="#686b67" x="40" y="200"></rect><rect width="10" height="10" rx="0" fill="#686b67" x="50" y="200"></rect><rect width="10" height="10" rx="0" fill="#686b67" x="60" y="200"></rect><rect width="10" height="10" rx="0" fill="#686b67" x="70" y="200"></rect><rect width="10" height="10" rx="0" fill="#686b67" x="80" y="200"></rect><rect width="10" height="10" rx="0" fill="#686b67" x="90" y="200"></rect><rect width="10" height="10" rx="0" fill="#686b67" x="100" y="200"></rect><rect width="10" height="10" rx="0" fill="#686b67" x="110" y="200"></rect><rect width="10" height="10" rx="0" fill="#686b67" x="120" y="200"></rect><rect width="10" height="10" rx="0" fill="#686b67" x="130" y="200"></rect><rect width="10" height="10" rx="0" fill="#686b67" x="140" y="200"></rect><rect width="10" height="10" rx="0" fill="#686b67" x="150" y="200"></rect><rect width="10" height="10" rx="0" fill="#686b67" x="160" y="200"></rect><rect width="10" height="10" rx="0" fill="#686b67" x="170" y="200"></rect><rect width="10" height="10" rx="0" fill="#686b67" x="180" y="200"></rect><rect width="10" height="10" rx="0" fill="#686b67" x="190" y="200"></rect><rect width="10" height="10" rx="0" fill="#686b67" x="200" y="200"></rect><rect width="10" height="10" rx="0" fill="#686b67" x="210" y="200"></rect><rect width="10" height="10" rx="0" fill="#686b67" x="220" y="200"></rect><rect width="10" height="10" rx="0" fill="#686b67" x="230" y="200"></rect><rect width="10" height="10" rx="0" fill="#686b67" x="20" y="210"></rect><rect width="10" height="10" rx="0" fill="#686b67" x="30" y="210"></rect><rect width="10" height="10" rx="0" fill="#686b67" x="40" y="210"></rect><rect width="10" height="10" rx="0" fill="#686b67" x="50" y="210"></rect><rect width="10" height="10" rx="0" fill="#686b67" x="60" y="210"></rect><rect width="10" height="10" rx="0" fill="#686b67" x="70" y="210"></rect><rect width="10" height="10" rx="0" fill="#686b67" x="80" y="210"></rect><rect width="10" height="10" rx="0" fill="#686b67" x="90" y="210"></rect><rect width="10" height="10" rx="0" fill="#686b67" x="100" y="210"></rect><rect width="10" height="10" rx="0" fill="#686b67" x="110" y="210"></rect><rect width="10" height="10" rx="0" fill="#686b67" x="120" y="210"></rect><rect width="10" height="10" rx="0" fill="#686b67" x="130" y="210"></rect><rect width="10" height="10" rx="0" fill="#686b67" x="140" y="210"></rect><rect width="10" height="10" rx="0" fill="#686b67" x="150" y="210"></rect><rect width="10" height="10" rx="0" fill="#686b67" x="160" y="210"></rect><rect width="10" height="10" rx="0" fill="#686b67" x="180" y="210"></rect><rect width="10" height="10" rx="0" fill="#686b67" x="190" y="210"></rect><rect width="10" height="10" rx="0" fill="#686b67" x="200" y="210"></rect><rect width="10" height="10" rx="0" fill="#686b67" x="210" y="210"></rect><rect width="10" height="10" rx="0" fill="#686b67" x="50" y="220"></rect><rect width="10" height="10" rx="0" fill="#686b67" x="60" y="220"></rect><rect width="10" height="10" rx="0" fill="#686b67" x="100" y="220"></rect><rect width="10" height="10" rx="0" fill="#686b67" x="110" y="220"></rect><rect width="10" height="10" rx="0" fill="#686b67" x="120" y="220"></rect><rect width="10" height="10" rx="0" fill="#686b67" x="130" y="220"></rect><rect width="10" height="10" rx="0" fill="#686b67" x="140" y="220"></rect><rect width="10" height="10" rx="0" fill="#686b67" x="150" y="220"></rect><rect width="10" height="10" rx="0" fill="#686b67" x="120" y="230"></rect><rect width="10" height="10" rx="0" fill="#686b67" x="130" y="230"></rect><rect width="10" height="10" rx="0" fill="#686b67" x="140" y="230"></rect></svg>